<mxfile host="app.diagrams.net" modified="2024-04-25T17:17:50.715Z" agent="Mozilla/5.0 (Macintosh; Intel Mac OS X 10.15; rv:109.0) Gecko/20100101 Firefox/115.0" etag="YdViNI087iIG4zu3Kx60" version="24.2.2" type="github">
  <diagram name="Page-1" id="vyHiLC-09OD1FAl4mpRi">
    <mxGraphModel dx="1128" dy="822" grid="1" gridSize="10" guides="1" tooltips="1" connect="1" arrows="1" fold="1" page="1" pageScale="1" pageWidth="3300" pageHeight="2339" background="#ffffff" math="0" shadow="0">
      <root>
        <mxCell id="0" />
        <mxCell id="1" parent="0" />
        <mxCell id="h2iR_2PBiaIYvgmLdMed-1" value="Stakeholder Requirements" style="rounded=1;whiteSpace=wrap;html=1;fillColor=#66B2FF;strokeColor=#6c8ebf;fontStyle=1" vertex="1" parent="1">
          <mxGeometry x="200" y="210" width="190" height="50" as="geometry" />
        </mxCell>
        <mxCell id="h2iR_2PBiaIYvgmLdMed-2" value="System Requirements" style="rounded=1;whiteSpace=wrap;html=1;fillColor=#66B2FF;strokeColor=#6c8ebf;fontStyle=1" vertex="1" parent="1">
          <mxGeometry x="260" y="300" width="190" height="50" as="geometry" />
        </mxCell>
        <mxCell id="h2iR_2PBiaIYvgmLdMed-3" value="Component Requirements" style="rounded=1;whiteSpace=wrap;html=1;fillColor=#66B2FF;strokeColor=#6c8ebf;fontStyle=1" vertex="1" parent="1">
          <mxGeometry x="310" y="390" width="190" height="50" as="geometry" />
        </mxCell>
        <mxCell id="h2iR_2PBiaIYvgmLdMed-4" value="Specifications" style="rounded=1;whiteSpace=wrap;html=1;fillColor=#66B2FF;strokeColor=#6c8ebf;fontStyle=1" vertex="1" parent="1">
          <mxGeometry x="380" y="480" width="190" height="50" as="geometry" />
        </mxCell>
        <mxCell id="h2iR_2PBiaIYvgmLdMed-5" value="&lt;div&gt;Implementation&lt;/div&gt;" style="rounded=1;whiteSpace=wrap;html=1;fillColor=#66B2FF;strokeColor=#6c8ebf;fontStyle=1" vertex="1" parent="1">
          <mxGeometry x="510" y="570" width="190" height="50" as="geometry" />
        </mxCell>
        <mxCell id="h2iR_2PBiaIYvgmLdMed-6" value="Functional Tests" style="rounded=1;whiteSpace=wrap;html=1;fillColor=#66B2FF;strokeColor=#6c8ebf;fontStyle=1" vertex="1" parent="1">
          <mxGeometry x="640" y="480" width="190" height="50" as="geometry" />
        </mxCell>
        <mxCell id="h2iR_2PBiaIYvgmLdMed-7" value="Component Tests" style="rounded=1;whiteSpace=wrap;html=1;fillColor=#66B2FF;strokeColor=#6c8ebf;fontStyle=1" vertex="1" parent="1">
          <mxGeometry x="700" y="390" width="190" height="50" as="geometry" />
        </mxCell>
        <mxCell id="h2iR_2PBiaIYvgmLdMed-8" value="Integration Tests" style="rounded=1;whiteSpace=wrap;html=1;fillColor=#66B2FF;strokeColor=#6c8ebf;fontStyle=1" vertex="1" parent="1">
          <mxGeometry x="750" y="300" width="190" height="50" as="geometry" />
        </mxCell>
        <mxCell id="h2iR_2PBiaIYvgmLdMed-9" value="Operational Demonstration" style="rounded=1;whiteSpace=wrap;html=1;fillColor=#66B2FF;strokeColor=#6c8ebf;fontStyle=1" vertex="1" parent="1">
          <mxGeometry x="810" y="210" width="190" height="50" as="geometry" />
        </mxCell>
        <mxCell id="h2iR_2PBiaIYvgmLdMed-10" value="" style="endArrow=classic;html=1;rounded=0;exitX=0;exitY=0.5;exitDx=0;exitDy=0;entryX=1;entryY=0.5;entryDx=0;entryDy=0;dashed=1;strokeWidth=2;strokeColor=#FFFFFF;" edge="1" parent="1" source="h2iR_2PBiaIYvgmLdMed-9" target="h2iR_2PBiaIYvgmLdMed-1">
          <mxGeometry width="50" height="50" relative="1" as="geometry">
            <mxPoint x="700" y="260" as="sourcePoint" />
            <mxPoint x="750" y="210" as="targetPoint" />
          </mxGeometry>
        </mxCell>
        <mxCell id="h2iR_2PBiaIYvgmLdMed-11" value="" style="endArrow=classic;html=1;rounded=0;exitX=0;exitY=0.5;exitDx=0;exitDy=0;entryX=1;entryY=0.5;entryDx=0;entryDy=0;dashed=1;strokeWidth=2;strokeColor=#FFFFFF;" edge="1" parent="1" source="h2iR_2PBiaIYvgmLdMed-8" target="h2iR_2PBiaIYvgmLdMed-2">
          <mxGeometry width="50" height="50" relative="1" as="geometry">
            <mxPoint x="800" y="290" as="sourcePoint" />
            <mxPoint x="380" y="290" as="targetPoint" />
          </mxGeometry>
        </mxCell>
        <mxCell id="h2iR_2PBiaIYvgmLdMed-12" value="" style="endArrow=classic;html=1;rounded=0;entryX=1;entryY=0.5;entryDx=0;entryDy=0;dashed=1;strokeWidth=2;exitX=0;exitY=0.5;exitDx=0;exitDy=0;strokeColor=#FFFFFF;" edge="1" parent="1" source="h2iR_2PBiaIYvgmLdMed-7" target="h2iR_2PBiaIYvgmLdMed-3">
          <mxGeometry width="50" height="50" relative="1" as="geometry">
            <mxPoint x="670" y="420" as="sourcePoint" />
            <mxPoint x="400" y="414.5" as="targetPoint" />
          </mxGeometry>
        </mxCell>
        <mxCell id="h2iR_2PBiaIYvgmLdMed-13" value="" style="endArrow=classic;html=1;rounded=0;exitX=0;exitY=0.5;exitDx=0;exitDy=0;entryX=1;entryY=0.5;entryDx=0;entryDy=0;dashed=1;strokeWidth=2;strokeColor=#FFFFFF;" edge="1" parent="1" source="h2iR_2PBiaIYvgmLdMed-6" target="h2iR_2PBiaIYvgmLdMed-4">
          <mxGeometry width="50" height="50" relative="1" as="geometry">
            <mxPoint x="770" y="345" as="sourcePoint" />
            <mxPoint x="470" y="345" as="targetPoint" />
          </mxGeometry>
        </mxCell>
        <mxCell id="h2iR_2PBiaIYvgmLdMed-14" value="" style="endArrow=classic;html=1;rounded=0;exitX=0.116;exitY=1.12;exitDx=0;exitDy=0;entryX=0;entryY=0.5;entryDx=0;entryDy=0;exitPerimeter=0;strokeWidth=3;strokeColor=#FFFFFF;" edge="1" parent="1" source="h2iR_2PBiaIYvgmLdMed-1" target="h2iR_2PBiaIYvgmLdMed-2">
          <mxGeometry width="50" height="50" relative="1" as="geometry">
            <mxPoint x="210" y="380" as="sourcePoint" />
            <mxPoint x="200" y="340" as="targetPoint" />
            <Array as="points">
              <mxPoint x="222" y="325" />
            </Array>
          </mxGeometry>
        </mxCell>
        <mxCell id="h2iR_2PBiaIYvgmLdMed-15" value="" style="endArrow=classic;html=1;rounded=0;exitX=0.116;exitY=1.12;exitDx=0;exitDy=0;entryX=0;entryY=0.5;entryDx=0;entryDy=0;exitPerimeter=0;strokeWidth=3;strokeColor=#FFFFFF;" edge="1" parent="1">
          <mxGeometry width="50" height="50" relative="1" as="geometry">
            <mxPoint x="272" y="360" as="sourcePoint" />
            <mxPoint x="310" y="419" as="targetPoint" />
            <Array as="points">
              <mxPoint x="272" y="419" />
            </Array>
          </mxGeometry>
        </mxCell>
        <mxCell id="h2iR_2PBiaIYvgmLdMed-16" value="" style="endArrow=classic;html=1;rounded=0;exitX=0.116;exitY=1.12;exitDx=0;exitDy=0;entryX=0;entryY=0.5;entryDx=0;entryDy=0;exitPerimeter=0;strokeWidth=3;strokeColor=#FFFFFF;" edge="1" parent="1">
          <mxGeometry width="50" height="50" relative="1" as="geometry">
            <mxPoint x="342" y="450" as="sourcePoint" />
            <mxPoint x="380" y="509" as="targetPoint" />
            <Array as="points">
              <mxPoint x="342" y="509" />
            </Array>
          </mxGeometry>
        </mxCell>
        <mxCell id="h2iR_2PBiaIYvgmLdMed-17" value="" style="endArrow=classic;html=1;rounded=0;exitX=0.116;exitY=1.12;exitDx=0;exitDy=0;entryX=0;entryY=0.5;entryDx=0;entryDy=0;exitPerimeter=0;strokeWidth=3;strokeColor=#FFFFFF;" edge="1" parent="1">
          <mxGeometry width="50" height="50" relative="1" as="geometry">
            <mxPoint x="470" y="540" as="sourcePoint" />
            <mxPoint x="508" y="599" as="targetPoint" />
            <Array as="points">
              <mxPoint x="470" y="599" />
            </Array>
          </mxGeometry>
        </mxCell>
        <mxCell id="h2iR_2PBiaIYvgmLdMed-18" value="" style="endArrow=classic;html=1;rounded=0;strokeWidth=3;strokeColor=#FFFFFF;" edge="1" parent="1">
          <mxGeometry width="50" height="50" relative="1" as="geometry">
            <mxPoint x="710" y="600" as="sourcePoint" />
            <mxPoint x="770" y="540" as="targetPoint" />
            <Array as="points">
              <mxPoint x="770" y="600" />
            </Array>
          </mxGeometry>
        </mxCell>
        <mxCell id="h2iR_2PBiaIYvgmLdMed-19" value="" style="endArrow=classic;html=1;rounded=0;strokeWidth=3;strokeColor=#FFFFFF;" edge="1" parent="1">
          <mxGeometry width="50" height="50" relative="1" as="geometry">
            <mxPoint x="839" y="503" as="sourcePoint" />
            <mxPoint x="880" y="450" as="targetPoint" />
            <Array as="points">
              <mxPoint x="880" y="503" />
            </Array>
          </mxGeometry>
        </mxCell>
        <mxCell id="h2iR_2PBiaIYvgmLdMed-20" value="" style="endArrow=classic;html=1;rounded=0;strokeWidth=3;strokeColor=#FFFFFF;" edge="1" parent="1">
          <mxGeometry width="50" height="50" relative="1" as="geometry">
            <mxPoint x="899" y="413" as="sourcePoint" />
            <mxPoint x="930" y="360" as="targetPoint" />
            <Array as="points">
              <mxPoint x="930" y="413" />
            </Array>
          </mxGeometry>
        </mxCell>
        <mxCell id="h2iR_2PBiaIYvgmLdMed-21" value="" style="endArrow=classic;html=1;rounded=0;strokeWidth=3;strokeColor=#FFFFFF;" edge="1" parent="1">
          <mxGeometry width="50" height="50" relative="1" as="geometry">
            <mxPoint x="947" y="325" as="sourcePoint" />
            <mxPoint x="988" y="272" as="targetPoint" />
            <Array as="points">
              <mxPoint x="988" y="325" />
            </Array>
          </mxGeometry>
        </mxCell>
        <mxCell id="h2iR_2PBiaIYvgmLdMed-22" value="Interfaces" style="rounded=1;whiteSpace=wrap;html=1;fillColor=#66B2FF;strokeColor=#6c8ebf;fontStyle=1" vertex="1" parent="1">
          <mxGeometry y="210" width="190" height="50" as="geometry" />
        </mxCell>
        <mxCell id="h2iR_2PBiaIYvgmLdMed-23" value="" style="endArrow=classic;html=1;rounded=0;strokeWidth=3;strokeColor=#FFFFFF;" edge="1" parent="1">
          <mxGeometry width="50" height="50" relative="1" as="geometry">
            <mxPoint x="130" y="270" as="sourcePoint" />
            <mxPoint x="200" y="323" as="targetPoint" />
            <Array as="points">
              <mxPoint x="130" y="323" />
            </Array>
          </mxGeometry>
        </mxCell>
      </root>
    </mxGraphModel>
  </diagram>
</mxfile>
